<?xml version="1.0" encoding="UTF-8" standalone="no"?>
<svg
   width="100%"
   height="100%"
   viewBox="0 0 72 192"
   version="1.1"
   xml:space="preserve"
   style="fill-rule:evenodd;clip-rule:evenodd;stroke-linejoin:round;stroke-miterlimit:1.41421;"
   id="svg130"
   sodipodi:docname="biker-long-john].svg"
   inkscape:version="1.1.1 (3bf5ae0d25, 2021-09-20)"
   xmlns:inkscape="http://www.inkscape.org/namespaces/inkscape"
   xmlns:sodipodi="http://sodipodi.sourceforge.net/DTD/sodipodi-0.dtd"
   xmlns="http://www.w3.org/2000/svg"
   xmlns:svg="http://www.w3.org/2000/svg"><defs
   id="defs134" /><sodipodi:namedview
   id="namedview132"
   pagecolor="#ffffff"
   bordercolor="#666666"
   borderopacity="1.0"
   inkscape:pageshadow="2"
   inkscape:pageopacity="0.0"
   inkscape:pagecheckerboard="0"
   showgrid="false"
   inkscape:zoom="2.1526246"
   inkscape:cx="35.538013"
   inkscape:cy="103.3622"
   inkscape:window-width="1347"
   inkscape:window-height="1081"
   inkscape:window-x="629"
   inkscape:window-y="181"
   inkscape:window-maximized="0"
   inkscape:current-layer="g127" />
    <g
   id="biker-01-inbound"
   transform="matrix(0.5,0,0,0.5,-2182.54,-239.75)">
        <g
   id="g127">
            <g
   transform="matrix(2.00022,0,0,2.00022,-4382.66,-863.694)"
   id="g11">
                <path
   d="M4401.35,751.789L4414.18,751.049L4408.18,760.837L4401.35,751.789Z"
   style="fill:rgb(84,62,54);fill-rule:nonzero;"
   id="path9" />
            </g>
            <g
   transform="matrix(2.00022,0,0,2.00022,-4382.66,-863.694)"
   id="g15">
                <path
   d="M4401.89,830.589L4389.96,832.191L4391.01,827.266L4402.81,826.326L4401.89,830.589Z"
   style="fill:rgb(55,56,55);fill-rule:nonzero;"
   id="path13" />
            </g>
            <g
   transform="matrix(2.00022,0,0,2.00022,-4382.66,-863.694)"
   id="g19">
                <path
   d="M4405.39,788.567L4412.63,788.625L4410.92,783.333L4405.85,782.704L4405.39,788.567Z"
   style="fill:rgb(193,159,62);fill-rule:nonzero;"
   id="path17" />
            </g>
            <g
   transform="matrix(2.00022,0,0,2.00022,-4382.66,-863.694)"
   id="g23">
                <path
   d="M4408.72,783.848L4397.41,799.327L4396.9,823.5L4392.4,824.991L4390.83,797.681L4399.47,776.586L4409.17,777.118L4416.28,776.511L4420.82,788.166L4424.85,823.577L4420.9,824.563L4410.82,783.97L4408.72,783.848Z"
   style="fill:rgb(91,93,94);fill-rule:nonzero;"
   id="path21" />
            </g>
            <g
   transform="matrix(2.00022,0,0,2.00022,-4382.66,-863.694)"
   id="g27">
                <path
   d="M4392.34,823.688L4391.9,833.188L4394.18,838.061L4396.68,837.905L4398.01,833.371L4396.9,823.001L4392.34,823.688Z"
   style="fill:rgb(219,218,215);fill-rule:nonzero;"
   id="path25" />
            </g>
            
            
            <g
   transform="matrix(2.00022,0,0,2.00022,-4382.66,-863.694)"
   id="g39">
                <path
   d="M4407.29,815.626L4406.95,791.03L4410.89,791.039L4411.16,815.45L4407.29,815.626Z"
   style="fill:rgb(236,219,178);fill-rule:nonzero;"
   id="path37" />
            </g>
            
            <g
   transform="matrix(2.00022,0,0,2.00022,-4382.66,-863.694)"
   id="g47">
                <path
   d="M4399.46,776.624L4398.55,758.337L4389.75,767.162L4389.54,782.769L4385.65,781.861L4385.59,764.895L4397.98,752.113L4401.35,751.789L4408.18,760.837L4414.18,751.049L4417.23,751.208L4430.83,765.289L4431.43,783.253L4428.02,783.304L4427.34,767.013L4416.8,756.542L4416.28,776.458L4411.57,778.269L4399.46,776.624Z"
   style="fill:rgb(229,226,220);fill-rule:nonzero;"
   id="path45" />
            </g>
            <g
   transform="matrix(2.00022,0,0,2.00022,-4382.66,-863.694)"
   id="g53">
                <g
   opacity="0.5"
   id="g51">
                    <path
   d="M4415.81,803.834L4420.21,785.501L4411.48,778.269L4399.46,776.539L4395.65,785.75L4397.46,799.375L4404.05,790.25L4407.01,791.125L4411.01,802.584L4411.01,790.958L4412.51,790.583L4415.81,803.834Z"
   style="fill:rgb(23,24,23);fill-rule:nonzero;"
   id="path49" />
                </g>
            </g>
            <g
   transform="matrix(2.00022,0,0,2.00022,-4382.66,-863.694)"
   id="g57">
                <path
   d="M4407.11,791.108L4410.65,791.147L4419.16,788.255L4418.65,786.221L4410.56,788.528L4407.06,788.567L4399.09,786.418L4398.58,788.665L4407.11,791.108Z"
   style="fill:rgb(236,219,178);fill-rule:nonzero;"
   id="path55" />
            </g>
            <g
   transform="matrix(2.00022,0,0,2.00022,-4382.66,-863.694)"
   id="g61">
                <path
   d="M4417.7,785.53L4417.98,789.907L4435.89,788.448L4435.15,783.196L4417.7,785.53Z"
   style="fill:rgb(206,173,128);fill-rule:nonzero;"
   id="path59" />
            </g>
            <g
   transform="matrix(2.00022,0,0,2.00022,-4382.66,-863.694)"
   id="g65">
                <path
   d="M4399.87,785.969L4399.58,790.346L4381.68,788.887L4382.42,783.636L4399.87,785.969Z"
   style="fill:rgb(206,173,128);fill-rule:nonzero;"
   id="path63" />
            </g>
            <g
   transform="matrix(2.00022,0,0,2.00022,-4382.66,-863.694)"
   id="g69">
                <path
   d="M4405.69,753.093L4409.65,753.093L4414.06,748.594L4413.15,735.899L4400.82,736.506L4400.93,748.188L4405.69,753.093Z"
   style="fill:rgb(114,89,75);fill-rule:nonzero;"
   id="path67" />
            </g>
            <g
   transform="matrix(2.00022,0,0,2.00022,-4382.66,-863.694)"
   id="g73">
                <path
   d="M4385.29,783.603L4386.47,787.28L4392.41,788.763L4391.7,785.012L4393.74,785.168L4393.66,783.76L4385.61,781.96L4385.29,783.603Z"
   style="fill:rgb(114,89,75);fill-rule:nonzero;"
   id="path71" />
            </g>
            <g
   transform="matrix(2.00022,0,0,2.00022,-4382.66,-863.694)"
   id="g77">
                <path
   d="M4431.65,785.792L4430.95,787.044L4425.01,788.528L4425.71,784.775L4423.68,784.934L4423.76,783.526L4431.96,782.587L4431.65,785.792Z"
   style="fill:rgb(114,89,75);fill-rule:nonzero;"
   id="path75" />
            </g>
            <g
   transform="matrix(2.00022,0,0,2.00022,-4382.66,-863.694)"
   id="g81">
                <path
   d="M4415.49,829.884L4429.38,830.04L4428.76,825.976L4415.25,825.351L4415.49,829.884Z"
   style="fill:rgb(55,56,55);fill-rule:nonzero;"
   id="path79" />
            </g>
            <g
   transform="matrix(2.00022,0,0,2.00022,-4382.66,-863.694)"
   id="g85">
                <path
   d="M4424.9,823.5L4427.78,832.375L4425.61,835.974L4422.68,836.209L4420.53,833.063L4420.65,823.875"
   style="fill:rgb(219,218,215);fill-rule:nonzero;"
   id="path83" />
            </g>
            <g
   transform="matrix(2.00022,0,0,2.00022,-4382.66,-863.694)"
   id="g89">
                <path
   d="M4397.52,740.751L4395.46,747.454L4400.98,746.563L4400.93,742.125L4407.28,740.5L4406.96,738.813L4397.52,740.751Z"
   style="fill:rgb(41,43,41);fill-rule:nonzero;"
   id="path87" />
            </g>
            <g
   transform="matrix(2.00022,0,0,2.00022,-4382.66,-863.694)"
   id="g93">
                <path
   d="M4406.55,739.091L4407.85,742.443L4413.63,743.856L4413.82,746.317L4419.69,745.671L4416.95,739.121L4408.12,738.79L4406.55,739.091Z"
   style="fill:rgb(41,43,41);fill-rule:nonzero;"
   id="path91" />
            </g>
            <g
   transform="matrix(2.00022,0,0,2.00022,-4382.66,-863.694)"
   id="g97">
                <path
   d="M4413.43,741.335L4415.14,741.15L4415.34,744.632L4413.58,744.722L4413.43,741.335Z"
   style="fill:rgb(114,89,75);fill-rule:nonzero;"
   id="path95" />
            </g>
            <g
   transform="matrix(2.00022,0,0,2.00022,-4382.66,-863.694)"
   id="g101">
                <path
   d="M4401.04,742.228L4399.13,742.073L4399.34,745.877L4401.07,745.968L4401.04,742.228Z"
   style="fill:rgb(114,89,75);fill-rule:nonzero;"
   id="path99" />
            </g>
            <g
   transform="matrix(2.00022,0,0,2.00022,-4382.66,-863.694)"
   id="g105">
                <path
   d="M4398.88,740.585L4408.36,738.771L4415.02,738.971L4417.38,734.799L4410.26,727.75L4404.96,727.792L4395.32,737.491L4398.88,740.585Z"
   style="fill:rgb(54,130,63);fill-rule:nonzero;"
   id="path103" />
            </g>
            <g
   transform="matrix(2.00022,0,0,2.00022,-4382.66,-863.694)"
   id="g109">
                <path
   d="M4398.88,740.585L4408.36,738.771L4415.42,739.047L4417.38,734.815L4406.8,734.572L4395.39,737.566L4398.88,740.585Z"
   style="fill:rgb(102,156,70);fill-rule:nonzero;"
   id="path107" />
            </g>
            
            <g
   transform="matrix(2.00022,0,0,2.00022,-4384.8666,-889.01194)"
   id="g117">
                <path
   d="m 4414.1384,857.47304 4.59,0.633 v 1.215 l -4.55,0.99 z"
   style="fill:#5b5d5e;fill-rule:nonzero"
   id="path115" />
            </g>
            <g
   transform="matrix(2.00022,0,0,2.00022,-4381.2664,-888.54738)"
   id="g121">
                <path
   d="m 4405.5445,857.18273 -4.95,0.902 v 1.182 l 4.91,0.754 z"
   style="fill:#5b5d5e;fill-rule:nonzero"
   id="path119" />
            </g>
            <g
   transform="matrix(2.00022,0,0,2.00022,-4382.66,-863.694)"
   id="g125">
                <rect
   x="4426.46"
   y="778.499"
   width="0.25"
   height="0.125"
   style="fill:rgb(193,159,62);fill-rule:nonzero;"
   id="rect123" />
            </g><g
   transform="matrix(2.00022,0,0,2.00022,-4382.66,-863.694)"
   id="g113"
   style="fill:#98a874;fill-opacity:0.99999994;stroke-width:0.99989001;stroke-miterlimit:4;stroke-dasharray:none;stroke:none">
                
            <path
   style="fill:#98a874;fill-opacity:1;stroke:none;stroke-width:0.99989;stroke-linecap:butt;stroke-linejoin:miter;stroke-miterlimit:4;stroke-dasharray:none;stroke-opacity:1"
   d="m 4384.8846,805.20219 50.9097,0.16422 -8.2112,33.99455 h -36.6221 z"
   id="path2721"
   sodipodi:nodetypes="ccccc" /></g><path
   style="fill:#393a3b;fill-opacity:0.56;stroke:none;stroke-width:2px;stroke-linecap:butt;stroke-linejoin:miter;stroke-opacity:1"
   d="m 4448.187,758.22027 -39.3639,49.48647 66.3992,0.65374 12.3828,-52.27536 z"
   id="path63547"
   sodipodi:nodetypes="ccccc" />
        <path
   d="m 4414.3252,845.04053 3.3,0.40793 -0.7446,-22.46116 -5.29,-1.704 -3.9,0.03 -5.77,1.811 -0.6294,22.53511 3.4481,-0.618 0.8813,-19.56511 2.17,-1.026 3.94,0.03 1.72,0.908 z"
   style="fill-rule:nonzero;clip-rule:evenodd;stroke-linejoin:round;stroke-miterlimit:1.41421;fill:#ecdbb2"
   id="path111"
   sodipodi:nodetypes="ccccccccccccc"
   transform="matrix(2.00022,0,0,2.00022,-4382.66,-863.694)" /><g
   transform="matrix(2.00022,0,0,0.69140487,-4381.7987,215.47753)"
   id="g62683"
   style="clip-rule:evenodd;fill-rule:evenodd;stroke-linejoin:round;stroke-miterlimit:1.41421"><path
     d="m 4407.29,815.626 -0.3811,-23.58641 1.1489,-1.18275 1.3853,-0.0272 1.4264,0.9824 0.2289,23.40141 z"
     style="fill:#ecdbb2;fill-rule:nonzero"
     id="path62681"
     sodipodi:nodetypes="ccccccc" /></g><g
   transform="matrix(2.00022,0,0,2.00022,-4382.66,-863.694)"
   id="g35">
                <path
   d="m 4411.8861,835.08167 2.0939,11.24233 -2.09,12.55126 z"
   style="fill:#c2bfbc;fill-rule:nonzero"
   id="path33"
   sodipodi:nodetypes="cccc" />
            </g><g
   transform="matrix(2.00022,0,0,2.00022,-4382.66,-863.694)"
   id="g31">
                <path
   d="m 4406.9339,834.9673 -2.0358,11.30039 2.0319,12.37707 z"
   style="fill:#c2bfbc;fill-rule:nonzero"
   id="path29"
   sodipodi:nodetypes="cccc" />
            </g></g>
    <g
   transform="matrix(2.00022,0,0,2.00022,-4382.66,-863.694)"
   id="g43"
   style="fill-rule:evenodd;clip-rule:evenodd;stroke-linejoin:round;stroke-miterlimit:1.41421">
                <path
   d="m 4408.0802,829.34135 -1.036,2.40769 -0.1142,29.91496 1.38,1.836 h 2.25 l 1.33,-2.07 -0.016,-29.75074 -0.6967,-2.20636 z"
   style="fill:#292b29;fill-rule:nonzero"
   id="path41"
   sodipodi:nodetypes="ccccccccc" />
            </g></g>
</svg>
